<svg width="512" height="512" viewBox="0 0 512 512" fill="none" xmlns="http://www.w3.org/2000/svg">
  <rect width="512" height="512" rx="108" fill="url(#bg)"/>

  <!-- Sparkles icon scaled from 24x24 to fit, centered -->
  <g transform="translate(64, 64) scale(16)" stroke-linecap="round" stroke-linejoin="round" fill="none">
    <!-- Main 4-point star -->
    <path d="M12 3l1.912 5.813a2 2 0 001.275 1.275L21 12l-5.813 1.912a2 2 0 00-1.275 1.275L12 21l-1.912-5.813a2 2 0 00-1.275-1.275L3 12l5.813-1.912a2 2 0 001.275-1.275z" stroke="url(#star)" stroke-width="1.4" fill="url(#starfill)" fill-opacity="0.15"/>

    <!-- Small accent sparkles -->
    <path d="M5 3v4M19 17v4M3 5h4M17 19h4" stroke="#c7d2fe" stroke-width="1.4" opacity="0.7"/>
  </g>

  <defs>
    <linearGradient id="bg" x1="0" y1="0" x2="512" y2="512" gradientUnits="userSpaceOnUse">
      <stop offset="0" stop-color="#1e1b4b"/>
      <stop offset="0.5" stop-color="#312e81"/>
      <stop offset="1" stop-color="#4f46e5"/>
    </linearGradient>
    <linearGradient id="star" x1="3" y1="3" x2="21" y2="21" gradientUnits="userSpaceOnUse">
      <stop offset="0" stop-color="#e0e7ff"/>
      <stop offset="1" stop-color="#a5b4fc"/>
    </linearGradient>
    <linearGradient id="starfill" x1="3" y1="3" x2="21" y2="21" gradientUnits="userSpaceOnUse">
      <stop offset="0" stop-color="#c7d2fe"/>
      <stop offset="1" stop-color="#6366f1"/>
    </linearGradient>
  </defs>
</svg>
